<svg version="1.2" xmlns="http://www.w3.org/2000/svg" viewBox="0 0 300 300" width="300" height="300">
	<title>logo</title>
	<style>
		.s0 { opacity: 1;fill: #000000 } 
	</style>
	<path id="Path 0" class="s0" d="m150 71.3c-1.3 1.3-2.3 2.9-2.2 3.5 0.1 0.7-0.2 1.2-0.8 1.2-0.6 0-1 3.3-1 8 0 5.7 0.5 8.8 1.7 10.8 0.9 1.5 2.4 3.3 3.2 4 1.2 0.9 11.5 1.2 45.6 1.2 24.2 0 44.3 0.3 44.8 0.7 0.4 0.5-9.3 10.9-21.6 23.3-12.2 12.4-26.9 27.7-32.6 34-5.7 6.3-11.8 13.1-13.5 15-1.7 1.9-5.4 6.2-8.2 9.5-2.8 3.3-7.7 9.6-11 14l-5.9 8c0 15.9 0.2 16.6 2.8 19.2l4.5 4.8c35.2 0.3 64.6-0.6 89-0.9 25.7-0.4 50.1-4.4 51.2-6.6 1.1-2.3 2-6 2-8.7 0-2.8-0.8-6.6-2-9-1.2-2.6-3.1-4.8-4.7-5.5-1.9-0.8-16.4-1.2-46.5-1.5-24.1-0.1-43.8-0.6-43.8-1-0.1-0.5 9.9-10.7 22.1-22.8 12.1-12.1 29-29.4 37.3-38.5 8.4-9.1 18.7-20.8 23-26 4.2-5.2 8.8-11.7 10.1-14.5 1.6-3.2 2.5-6.7 2.5-9.7 0-2.7-3.1-11.3-4.3-12.6l-2.2-2.3-137.2 0.1z"/>
	<path id="Path 0" fill-rule="evenodd" class="s0" d="m40.2 113.8c7.8-8.6 26.6-28 40.8-33.1 16-5.7 34.9-9 52.9-11.2 12.6-1.6 24.7-0.4 35.6-0.4l7.5 9.4-0.2 143-8.1 7h-13.6c-11.3 0-14.2-0.3-16.4-1.7-1.7-1.1-3.1-3.2-3.6-5.5-0.6-2.1-1.4-9.8-2.6-30.3h-38.8c-36 0-38.7 0.1-39.1 1.8-0.2 0.9-7.9 26.6-13.1 34.7l-15.5 0.3c-14.3 0.3-21-4.7-21-5.8 0-1.1 1.1-5.9 2.4-10.8 1.3-4.8 16.6-63.2 18.8-71.2 2.2-8 12.5-24.6 14-26.2zm43.6-4.7c-19.6 16-26.4 42.2-27.2 44.6-1.1 3.6 24.9 5.3 43.1 5.3h33.3v-57c-27.5 0.2-37.3 0.6-39.5 1.1-3 0.6-9.7 6-9.7 6z"/>
</svg>