<?xml version="1.0" encoding="UTF-8"?>
<svg xmlns="http://www.w3.org/2000/svg" viewBox="0 0 280 160.1">
  <defs>
    <style>
      .cls-1 {
        fill: #fff;
      }

      .cls-2 {
        fill: none;
        isolation: isolate;
      }
    </style>
  </defs>
  <g id="Path_0" data-name="Path 0" class="cls-2">
    <g id="Path_0-2" data-name="Path 0">
      <path class="cls-1" d="m278,134.6c-1.2-2.6-3.1-4.7-4.8-5.4-1.9-.8-16.3-1.3-46.5-1.5-24.1-.2-43.8-.7-43.8-1.1,0-.4,9.9-10.7,22.1-22.8,12.2-12.1,29-29.4,37.4-38.5,8.4-9.1,18.7-20.8,22.9-26,4.2-5.2,8.8-11.8,10.2-14.5,1.6-3.2,2.5-6.7,2.5-9.8,0-2.6-3.1-11.3-4.3-12.5L269.9,0h-137.2c0,0-.8,2.7-.8,2.7-1.3,1.3-2.3,2.8-2.2,3.5.1.7-.3,1.2-.8,1.2s-1,3.3-1,8,.5,8.8,1.7,10.8c.9,1.5,2.4,3.3,3.2,4,1.2,1,11.5,1.3,45.6,1.2,24.2,0,44.3.3,44.8.7.4.4-9.3,10.9-21.5,23.3s-26.9,27.7-32.7,34-11.8,13.1-13.5,15c-1.7,1.9-5.4,6.2-8.2,9.5-2.8,3.3-7.8,9.6-11,14l-5.9,8c0,15.9.2,16.6,2.8,19.2l4.5,4.7c35.7.5,64.9-.5,89-.9,4.9,0,18.5-1.3,29.1-2.8,10.6-1.6,21.9-3.1,22.2-3.7,1.1-2.3,2-6,2-8.8,0-2.7-.9-6.6-2-9Z"/>
    </g>
  </g>
  <g id="Path_0-3" data-name="Path 0" class="cls-2">
    <g id="Path_0-4" data-name="Path 0">
      <path class="cls-1" d="m164.5.4c-10.9,0-23-1.2-35.6.4-18,2.2-36.9,5.6-52.9,11.3-8.9,3.2-24.9,13.2-26.9,15.9-2.1,2.7-13.9,17.2-13.9,17.2,0,0-11.8,18.2-14,26.2-2.2,8-17.4,66.4-18.8,71.2C1.1,147.4,0,152.2,0,153.3s6.7,6.1,21,5.8l15.5-.3c5.2-8.1,12.9-33.8,13.1-34.8.4-1.6,3-1.8,39.1-1.8h38.8c1.2,20.5,2,28.2,2.6,30.3.6,2.3,1.9,4.5,3.7,5.5,3.7,2.1,6.2,2.2,16.4,1.8h13.6l8.1-7,.2-143-7.5-9.4Zm-36.5,89.9h-33.2c-18.3,0-44.2-1.7-43.1-5.3.8-2.5,7.5-28.6,27.2-44.6,0,0,6.7-5.4,9.7-6,2.2-.5,12-.9,39.5-1.1v57Z"/>
    </g>
  </g>
</svg>