<?xml version="1.0" standalone="no"?>
<!DOCTYPE svg PUBLIC "-//W3C//DTD SVG 20010904//EN"
 "http://www.w3.org/TR/2001/REC-SVG-20010904/DTD/svg10.dtd">
<svg version="1.0" xmlns="http://www.w3.org/2000/svg"
 width="700.000000pt" height="700.000000pt" viewBox="0 0 700.000000 700.000000"
 preserveAspectRatio="xMidYMid meet">
<metadata>
Created by potrace 1.14, written by Peter Selinger 2001-2017
</metadata>
<g transform="translate(0.000000,700.000000) scale(0.100000,-0.100000)"
fill="#000000" stroke="none">
<path d="M3297 5394 c-1 -1 -44 -4 -96 -8 -51 -3 -96 -8 -100 -10 -3 -2 -37
-7 -76 -11 -38 -4 -72 -8 -75 -10 -3 -2 -34 -6 -70 -10 -36 -4 -67 -8 -70 -10
-3 -2 -30 -6 -60 -10 -30 -4 -57 -8 -60 -10 -3 -2 -27 -6 -54 -9 -27 -4 -52
-9 -56 -11 -3 -2 -26 -6 -50 -10 -177 -26 -583 -139 -708 -197 -110 -51 -290
-176 -448 -312 -38 -32 -154 -145 -259 -251 -193 -195 -239 -255 -346 -451
-109 -201 -142 -281 -184 -439 -14 -55 -38 -143 -52 -195 -14 -52 -26 -102
-28 -110 -4 -19 -92 -349 -111 -415 -8 -27 -37 -138 -65 -245 -28 -107 -71
-271 -95 -365 -88 -334 -117 -461 -111 -486 13 -48 144 -102 307 -126 60 -8
532 -5 542 5 33 34 138 299 234 589 47 143 82 234 92 238 8 3 63 8 121 11 129
8 1633 11 1658 4 14 -4 18 -16 19 -50 2 -57 15 -264 19 -310 2 -19 6 -66 9
-105 23 -258 30 -285 86 -342 32 -32 75 -50 148 -59 42 -5 1198 -5 1497 1 110
2 367 6 570 9 437 7 606 14 775 31 19 2 69 7 110 10 41 3 86 8 100 10 14 2 76
11 139 20 117 16 205 34 298 60 61 18 73 35 93 133 32 156 -24 354 -119 421
-44 31 -127 36 -806 46 -1159 16 -1313 19 -1321 28 -7 7 100 118 501 522 293
294 672 684 775 795 23 25 65 70 94 100 29 30 110 120 181 200 181 203 189
211 200 224 9 9 102 120 205 242 54 65 173 244 201 302 35 75 59 174 54 226
-10 94 -74 262 -118 304 l-32 31 -1728 3 c-951 2 -1729 2 -1730 2z m2233 -738
c106 -6 102 -5 93 -21 -18 -32 -186 -211 -508 -540 -344 -353 -608 -628 -712
-741 -98 -108 -186 -206 -227 -252 -25 -29 -46 -49 -47 -45 -1 11 -1 274 0
990 l1 622 668 -4 c367 -3 696 -7 732 -9z m-2426 -701 l0 -660 -560 1 c-495 0
-719 5 -826 19 -18 2 -62 7 -98 10 -132 11 -268 44 -289 68 -32 39 142 454
279 666 145 223 331 409 512 510 52 29 69 31 268 38 96 3 176 6 177 7 1 0 122
1 269 1 l268 0 0 -660z"/>
</g>
</svg>
